<?xml version="1.0" encoding="UTF-8"?>
<svg id="Layer_1" data-name="Layer 1" xmlns="http://www.w3.org/2000/svg" viewBox="0 0 595.28 841.89">
  <defs>
    <style>
      .cls-1 {
        fill: #231f20;
      }
    </style>
  </defs>
  <g>
    <path class="cls-1" d="M411.13,815.63l-58.76-51.1c-5.36-4.59-11.1-10.91-11.1-10.91h-.57s.76,6.89.76,13.01v44.02h-34.26v-110.25h30.05l58.37,50.72c7.28,6.31,14.36,13.97,14.36,13.97h.57s-.76-7.66-.76-16.08v-52.25h34.26v118.86h-32.92Z"/>
    <path class="cls-1" d="M307.2,683.96v-63.16c0-39.43,25.26-66.8,68.71-66.8s68.14,26.03,68.14,68.52v61.44h-136.85ZM410.94,625.77c0-18.38-11.87-31.2-35.03-31.2s-35.6,12.06-35.6,31.2v18.18h70.63v-18.18Z"/>
    <path class="cls-1" d="M307.2,542.91v-67.95c0-27.94,12.82-51.68,40.77-51.68,15.7,0,26.8,8.04,33.3,22.39h.58c4.21-11.1,11.87-16.84,22.59-19.14,16.46-3.64,36.17-.58,37.51-5.55h2.1v39.43c-2.68,3.83-19.52,2.3-31.77,5.17-10.53,2.49-15.89,7.08-15.89,18.76v18.56h47.66v40h-136.85ZM367.88,502.9v-21.43c0-11.49-4.97-17.8-14.55-17.8-8.99,0-14.73,5.74-14.73,17.22v22.01h29.28Z"/>
    <path class="cls-1" d="M307.2,367.21v-40.77l136.85-50.72v42.49l-20.1,6.7v46.32l20.1,6.7v39.81l-136.85-50.53ZM396.4,362.23v-28.32l-26.8,8.61c-6.7,2.1-17.61,5.17-17.61,5.17v.38s10.91,2.87,17.61,5.17l26.8,9Z"/>
    <path class="cls-1" d="M307.2,292.57v-41.15l64.31-18.76c11.68-3.45,26.6-6.7,26.6-6.7v-.38s-14.93-3.45-26.6-6.7l-64.31-18.37v-40.58l136.85,44.02v44.79l-136.85,43.83Z"/>
    <path class="cls-1" d="M376.11,164.73c-40.96,0-71.39-26.8-71.39-69.29s30.43-69.67,71.39-69.67,71.2,27.18,71.2,69.67-30.24,69.29-71.2,69.29ZM376.11,66.35c-22.39,0-39.43,9.76-39.43,28.9s17.04,28.9,39.43,28.9,39.24-9.76,39.24-28.9-16.84-28.9-39.24-28.9Z"/>
  </g>
  <g>
    <path class="cls-1" d="M243.67,815.32v-40.96c10.91-1.34,16.08-9.76,16.08-22.97,0-7.85-3.06-17.42-11.29-17.42s-10.34,9.19-14.55,26.03c-5.74,22.97-13.59,50.72-42.68,50.72-31.39,0-43.26-25.65-43.26-56.46,0-28.33,11.87-54.36,41.73-54.93v39.62c-7.47,1.15-12.25,6.51-12.25,17.42,0,8.8,4.02,14.93,9.57,14.93,8.04,0,9.19-11.68,14.16-32.16,5.55-22.97,14.55-45.93,43.64-45.93s45.74,26.6,45.74,58.95c0,35.6-15.31,62.59-46.89,63.16Z"/>
    <path class="cls-1" d="M150.46,644.42v-40.77l136.85-50.72v42.49l-20.1,6.7v46.32l20.1,6.7v39.81l-136.85-50.53ZM239.65,639.44v-28.32l-26.8,8.61c-6.7,2.1-17.61,5.17-17.61,5.17v.38s10.91,2.87,17.61,5.17l26.8,9Z"/>
    <path class="cls-1" d="M150.46,545.47v-52.06l76.56-21.05v-.38l-76.56-21.05v-52.44h136.85v36.18h-85.75v.38l85.75,22.77v29.29l-85.75,22.77v.38h85.75v35.22h-136.85Z"/>
    <path class="cls-1" d="M219.36,387.39c-40.96,0-71.39-26.8-71.39-69.29s30.43-69.67,71.39-69.67,71.2,27.18,71.2,69.67-30.24,69.29-71.2,69.29ZM219.36,289.01c-22.39,0-39.43,9.76-39.43,28.9s17.04,28.9,39.43,28.9,39.24-9.76,39.24-28.9-16.84-28.9-39.24-28.9Z"/>
  </g>
</svg>